<svg id="Capa_1" enable-background="new 0 0 512 512" height="512" viewBox="0 0 512 512" width="512" xmlns="http://www.w3.org/2000/svg"><g><path d="m356.605 4.395c-5.859-5.859-15.352-5.859-21.211 0l-79.394 79.394-79.395-79.394c-5.859-5.859-15.352-5.859-21.211 0s-5.859 15.352 0 21.211l90 90c2.93 2.93 6.768 4.395 10.605 4.395s7.676-1.465 10.605-4.395l90-90c5.861-5.86 5.861-15.352.001-21.211z" fill="#dfe7f4"/><path d="m356.605 25.605c5.859-5.859 5.859-15.352 0-21.211s-15.352-5.859-21.211 0l-79.394 79.395v36.211c3.838 0 7.676-1.465 10.605-4.395z" fill="#c7cfe1"/><path d="m105 512c-8.291 0-15-6.709-15-15v-30c0-8.291 6.709-15 15-15s15 6.709 15 15v30c0 8.291-6.709 15-15 15z" fill="#07485e"/><path d="m407 512c-8.291 0-15-6.709-15-15v-30c0-8.291 6.709-15 15-15s15 6.709 15 15v30c0 8.291-6.709 15-15 15z" fill="#03232e"/><path d="m467 90h-211-211c-24.814 0-45 20.186-45 45v302c0 24.814 20.186 45 45 45h211 211c24.814 0 45-20.186 45-45v-302c0-24.814-20.186-45-45-45z" fill="#ff9f22"/><path d="m512 437v-302c0-24.814-20.186-45-45-45h-211v392h211c24.814 0 45-20.186 45-45z" fill="#ff4a4a"/><g fill="#dfe7f4"><circle cx="437" cy="195" r="15"/><circle cx="437" cy="255" r="15"/><path d="m437 392c-8.291 0-15-6.709-15-15v-62c0-8.291 6.709-15 15-15s15 6.709 15 15v62c0 8.291-6.709 15-15 15z"/></g><path d="m377 150h-121-181c-8.291 0-15 6.709-15 15v242c0 8.291 6.709 15 15 15h181 121c8.291 0 15-6.709 15-15v-242c0-8.291-6.709-15-15-15z" fill="#0b799d"/><path d="m392 407v-242c0-8.291-6.709-15-15-15h-121v272h121c8.291 0 15-6.709 15-15z" fill="#07485e"/></g></svg>